<?xml version="1.0" encoding="utf-8"?>
<!-- Generator: Adobe Illustrator 21.0.2, SVG Export Plug-In . SVG Version: 6.00 Build 0)  -->
<svg version="1.1" id="Layer_1" xmlns="http://www.w3.org/2000/svg" xmlns:xlink="http://www.w3.org/1999/xlink" x="0px" y="0px"
	 viewBox="0 0 183.3 138.9" style="enable-background:new 0 0 183.3 138.9;" xml:space="preserve">
<style type="text/css">
	.st0{fill:#CCB181;}
	.st1{fill:#EDCF94;}
	.st2{fill:#FFDDA1;}
</style>
<g>
	<path class="st0" d="M138.3,29.7v97.9c0,6.2-5,11.2-11.2,11.2H45.8c-6.2,0-11.2-5-11.2-11.2v-49v-49c0-6.2,5-11.2,11.2-11.2H127
		C133.2,18.5,138.3,23.6,138.3,29.7z"/>
</g>
<g>
	<path class="st1" d="M81.7,33.6L81.7,33.6c0,8.3-6.8,15-15,15l-43.5,0c-8.3,0-15-6.8-15-15v0c0-8.3,6.8-15,15-15l43.5,0
		C74.9,18.5,81.7,25.3,81.7,33.6z"/>
</g>
<g>
	<path class="st1" d="M80.5,63.6v0.1c0,8.2-6.7,15-15,15H15c-8.2,0-15-6.7-15-15l0-0.1c0-8.2,6.7-15,15-15h50.6
		C73.8,48.6,80.5,55.4,80.5,63.6z"/>
</g>
<g>
	<path class="st0" d="M183.3,62.9v31c0,17.1-14,31.1-31.1,31.1h-31.5c-17.1,0-31.1-14-31.1-31.1v-31c0-17.1,14-31.1,31.1-31.1h31.5
		C169.3,31.8,183.3,45.8,183.3,62.9z"/>
</g>
<g>
	<path class="st1" d="M76.3,93.8L76.3,93.8c0,8.3-6.8,15-15,15H20.8c-8.3,0-15-6.8-15-15v0c0-8.3,6.8-15,15-15h40.5
		C69.6,78.7,76.3,85.5,76.3,93.8z"/>
</g>
<g>
	<path class="st1" d="M69.5,123.5v0.7c0,8.1-6.6,14.7-14.7,14.7H27.7c-8.1,0-14.7-6.6-14.7-14.7v-0.7c0-8.1,6.6-14.7,14.7-14.7h27.1
		C62.9,108.8,69.5,115.4,69.5,123.5z"/>
</g>
<g>
	<circle class="st2" cx="101.5" cy="37.9" r="37.9"/>
</g>
<g>
	<path class="st2" d="M120.2,34.2L120.2,34.2c2.3,8-2.4,16.3-10.4,18.6L37.4,73.4c-8,2.3-16.3-2.4-18.6-10.4l0,0
		c-2.3-8,2.4-16.3,10.4-18.6l72.4-20.6C109.6,21.6,117.9,26.3,120.2,34.2z"/>
</g>
</svg>
