<?xml version="1.0" encoding="utf-8"?>
<!-- Generator: Adobe Illustrator 21.0.2, SVG Export Plug-In . SVG Version: 6.00 Build 0)  -->
<svg version="1.1" id="Layer_1" xmlns="http://www.w3.org/2000/svg" xmlns:xlink="http://www.w3.org/1999/xlink" x="0px" y="0px"
	 viewBox="0 0 190.7 146.7" style="enable-background:new 0 0 190.7 146.7;" xml:space="preserve">
<style type="text/css">
	.st0{fill:#CCB181;}
	.st1{fill:#EDCF94;}
	.st2{fill:#FFDDA1;}
</style>
<g>
	<path class="st0" d="M141.5,34v97.1c0,6.1-5,11.1-11.2,11.1H49.1c-6.2,0-11.2-5-11.2-11.1V82.6V34c0-6.1,5-11.1,11.2-11.1h81.2
		C136.5,22.9,141.5,27.9,141.5,34z"/>
</g>
<g>
	<path class="st1" d="M86.5,37.7L86.5,37.7c0,8.3-6.7,15-15,15l-43.6,0c-8.2,0-15-6.7-15-15v0c0-8.2,6.7-15,15-15l43.6,0
		C79.7,22.7,86.5,29.4,86.5,37.7z"/>
</g>
<g>
	<path class="st1" d="M83.6,67.1L83.6,67.1c0,8.3-6.7,15-15,15H18.1c-8.2,0-15-6.7-15-15v-0.1c0-8.2,6.7-15,15-15h50.6
		C76.9,52.2,83.6,58.9,83.6,67.1z"/>
</g>
<g>
	<path class="st0" d="M186.5,66.4v31c0,17.1-14,31.1-31.1,31.1h-31.5c-17.1,0-31.1-14-31.1-31.1v-31c0-17.1,14-31.1,31.1-31.1h31.5
		C172.5,35.3,186.5,49.3,186.5,66.4z"/>
</g>
<g>
	<path class="st1" d="M79.6,97.2L79.6,97.2c0,8.3-6.7,15-15,15H24.1c-8.2,0-15-6.7-15-15v0c0-8.2,6.7-15,15-15h40.6
		C72.9,82.2,79.6,88.9,79.6,97.2z"/>
</g>
<g>
	<path class="st1" d="M72.8,126.8v0.7c0,8.1-6.6,14.7-14.7,14.7H31c-8.1,0-14.7-6.6-14.7-14.7v-0.7c0-8.1,6.6-14.7,14.7-14.7h27.1
		C66.2,112.2,72.8,118.8,72.8,126.8z"/>
</g>
<g>
	<circle class="st2" cx="104.8" cy="41.4" r="37.9"/>
</g>
<g>
	<path class="st2" d="M123.5,37.7L123.5,37.7c2.3,7.9-2.4,16.3-10.3,18.5L40.7,76.8c-7.9,2.3-16.3-2.4-18.5-10.3l0,0
		c-2.3-7.9,2.4-16.3,10.3-18.5L105,27.4C112.9,25.1,121.2,29.8,123.5,37.7z"/>
</g>
</svg>
