<?xml version="1.0" encoding="utf-8"?>
<!-- Generator: Adobe Illustrator 21.0.2, SVG Export Plug-In . SVG Version: 6.00 Build 0)  -->
<svg version="1.1" id="Layer_1" xmlns="http://www.w3.org/2000/svg" xmlns:xlink="http://www.w3.org/1999/xlink" x="0px" y="0px"
	 viewBox="0 0 254 155.9" style="enable-background:new 0 0 254 155.9;" xml:space="preserve">
<style type="text/css">
	.st0{fill:#CCB181;}
	.st1{fill:#EDCF94;}
	.st2{fill:#FFDDA1;}
</style>
<g>
	<path class="st0" d="M166.3,61L166.3,61c-2.8,7.8-11.5,11.9-19.3,9.1L33.7,29.3c-7.8-2.8-11.9-11.5-9.1-19.3l0,0
		c2.8-7.8,11.5-11.9,19.3-9.1l113.3,40.8C165,44.5,169.1,53.2,166.3,61z"/>
</g>
<g>
	<path class="st1" d="M136,65.7L136,65.7c1.5,8.1-4,16-12.2,17.5l-106.2,19c-8.1,1.5-16-4-17.5-12.2l0,0c-1.5-8.1,4-16,12.2-17.5
		l106.2-19C126.7,52.1,134.6,57.6,136,65.7z"/>
</g>
<g>
	<path class="st0" d="M209,46.7v97.9c0,6.2-5,11.2-11.2,11.2h-81.2c-6.2,0-11.2-5-11.2-11.2v-49v-49c0-6.2,5-11.2,11.2-11.2h81.2
		C203.9,35.5,209,40.5,209,46.7z"/>
</g>
<g>
	<path class="st0" d="M254,79.9v31c0,17.1-14,31.1-31.1,31.1h-31.5c-17.1,0-31.1-14-31.1-31.1v-31c0-17.1,14-31.1,31.1-31.1h31.5
		C240,48.7,254,62.8,254,79.9z"/>
</g>
<g>
	<path class="st1" d="M149.9,110.7L149.9,110.7c0,8.3-6.8,15-15,15H87.9c-8.3,0-15-6.8-15-15v0c0-8.3,6.8-15,15-15h46.9
		C143.1,95.7,149.9,102.4,149.9,110.7z"/>
</g>
<g>
	<path class="st1" d="M154.4,140.8L154.4,140.8c0,8.3-6.8,15-15,15h-35.6c-8.3,0-15-6.8-15-15v0c0-8.3,6.8-15,15-15h35.6
		C147.6,125.8,154.4,132.5,154.4,140.8z"/>
</g>
<g>
	<circle class="st2" cx="174.6" cy="54.9" r="37.9"/>
</g>
<g>
	<path class="st2" d="M177.5,47.2L177.5,47.2c5.9,5.9,5.9,15.4,0,21.3l-53.2,53.2c-5.9,5.9-15.4,5.9-21.3,0l0,0
		c-5.9-5.9-5.9-15.4,0-21.3l53.2-53.2C162.1,41.3,171.7,41.3,177.5,47.2z"/>
</g>
</svg>
