<?xml version="1.0" encoding="utf-8"?>
<!-- Generator: Adobe Illustrator 21.0.2, SVG Export Plug-In . SVG Version: 6.00 Build 0)  -->
<svg version="1.1" id="Layer_1" xmlns="http://www.w3.org/2000/svg" xmlns:xlink="http://www.w3.org/1999/xlink" x="0px" y="0px"
	 viewBox="0 0 271.7 185.3" style="enable-background:new 0 0 271.7 185.3;" xml:space="preserve">
<style type="text/css">
	.st0{fill:#EDCF94;}
	.st1{fill:#CCB181;}
	.st2{fill:#FFDDA1;}
</style>
<g>
	<g>
		<path class="st0" d="M150.3,137.4L150.3,137.4c0,8.3-6.8,15-15,15H38.5c-8.2,0-15-6.8-15-15v0c0-8.3,6.7-15,15-15h96.8
			C143.6,122.4,150.3,129.1,150.3,137.4z"/>
	</g>
	<g>
		<path class="st0" d="M168.4,167.4L168.4,167.4c0,8.3-6.7,15-15,15H77.5c-8.2,0-15-6.8-15-15v0c0-8.3,6.7-15,15-15h75.9
			C161.7,152.4,168.4,159.1,168.4,167.4z"/>
	</g>
	<g>
		<path class="st0" d="M140.6,107.4L140.6,107.4c0,8.3-6.8,15-15,15h-108c-8.2,0-15-6.7-15-15v0c0-8.2,6.7-15,15-15h108
			C133.8,92.4,140.6,99.1,140.6,107.4z"/>
	</g>
	<path class="st1" d="M128.3,182.4h86c4.9,0,8.8-4,8.8-8.8V71.2c0-4.9-4-8.8-8.8-8.8h-86c-4.9,0-8.8,4-8.8,8.8v102.3
		C119.4,178.4,123.4,182.4,128.3,182.4z"/>
	<g>
		<path class="st1" d="M174,77.4L174,77.4c0,8.3-6.8,15-15,15H38.5c-8.2,0-15-6.7-15-15v0c0-8.2,6.7-15,15-15H159
			C167.3,62.4,174,69.1,174,77.4z"/>
	</g>
	<g>
		<path class="st1" d="M268.1,106.7v31c0,17.1-14,31.1-31.1,31.1h-31.5c-17.1,0-31.1-14-31.1-31.1v-31c0-17.1,14-31.1,31.1-31.1
			h31.5C254.1,75.6,268.1,89.6,268.1,106.7z"/>
	</g>
	<g>
		<circle class="st2" cx="186.3" cy="79.5" r="37.9"/>
	</g>
	<g>
		<path class="st2" d="M193.9,82.4L193.9,82.4c-5.8,5.8-15.4,5.8-21.2,0l-53.3-53.3c-5.8-5.8-5.8-15.4,0-21.2l0,0
			c5.8-5.8,15.4-5.8,21.2,0l53.3,53.3C199.8,67,199.8,76.6,193.9,82.4z"/>
	</g>
</g>
</svg>
