<?xml version="1.0" encoding="utf-8"?>
<!-- Generator: Adobe Illustrator 21.0.2, SVG Export Plug-In . SVG Version: 6.00 Build 0)  -->
<svg version="1.1" id="Layer_1" xmlns="http://www.w3.org/2000/svg" xmlns:xlink="http://www.w3.org/1999/xlink" x="0px" y="0px"
	 viewBox="0 0 265.4 179.2" style="enable-background:new 0 0 265.4 179.2;" xml:space="preserve">
<style type="text/css">
	.st0{fill:#EDCF94;}
	.st1{fill:#CCB181;}
	.st2{fill:#FFDDA1;}
</style>
<g>
	<path class="st0" d="M147.7,134.1L147.7,134.1c0,8.3-6.8,15-15,15H35.9c-8.3,0-15-6.8-15-15v0c0-8.3,6.8-15,15-15h96.7
		C140.9,119,147.7,125.8,147.7,134.1z"/>
</g>
<g>
	<path class="st0" d="M165.8,164.2L165.8,164.2c0,8.3-6.8,15-15,15H75c-8.3,0-15-6.8-15-15v0c0-8.3,6.8-15,15-15h75.8
		C159,149.1,165.8,155.9,165.8,164.2z"/>
</g>
<g>
	<path class="st1" d="M171.4,73.9L171.4,73.9c0,8.3-6.8,15-15,15H35.9c-8.3,0-15-6.8-15-15v0c0-8.3,6.8-15,15-15h120.4
		C164.6,58.8,171.4,65.6,171.4,73.9z"/>
</g>
<g>
	<path class="st0" d="M138,104L138,104c0,8.3-6.8,15-15,15H15c-8.3,0-15-6.8-15-15v0c0-8.3,6.8-15,15-15h107.9
		C131.2,88.9,138,95.7,138,104z"/>
</g>
<g>
	<path class="st1" d="M220.4,70.1V168c0,6.2-5,11.2-11.2,11.2H128c-6.2,0-11.2-5-11.2-11.2v-49v-49c0-6.2,5-11.2,11.2-11.2h81.2
		C215.4,58.8,220.4,63.9,220.4,70.1z"/>
</g>
<g>
	<path class="st1" d="M265.4,103.2v31c0,17.1-14,31.1-31.1,31.1h-31.5c-17.1,0-31.1-14-31.1-31.1v-31c0-17.1,14-31.1,31.1-31.1h31.5
		C251.4,72.1,265.4,86.1,265.4,103.2z"/>
</g>
<g>
	<circle class="st2" cx="183.7" cy="76" r="37.9"/>
</g>
<g>
	<path class="st2" d="M191.3,78.9L191.3,78.9c-5.9,5.9-15.4,5.9-21.3,0l-53.2-53.2c-5.9-5.9-5.9-15.4,0-21.3l0,0
		c5.9-5.9,15.4-5.9,21.3,0l53.2,53.2C197.2,63.5,197.2,73,191.3,78.9z"/>
</g>
</svg>
