<?xml version="1.0" encoding="utf-8"?>
<!-- Generator: Adobe Illustrator 21.0.2, SVG Export Plug-In . SVG Version: 6.00 Build 0)  -->
<svg version="1.1" id="Layer_1" xmlns="http://www.w3.org/2000/svg" xmlns:xlink="http://www.w3.org/1999/xlink" x="0px" y="0px"
	 viewBox="0 0 265.5 166.7" style="enable-background:new 0 0 265.5 166.7;" xml:space="preserve">
<style type="text/css">
	.st0{fill:#CCB181;}
	.st1{fill:#EDCF94;}
	.st2{fill:#FFDDA1;}
</style>
<g>
	<path class="st0" d="M171.2,65.8L171.2,65.8c-2.8,7.8-11.4,11.8-19.2,9L38.6,34c-7.8-2.8-11.8-11.4-9-19.2l0,0
		C32.4,7.1,41,3,48.8,5.8l113.4,40.8C169.9,49.4,174,58.1,171.2,65.8z"/>
</g>
<g>
	<path class="st1" d="M141,70.6L141,70.6c1.5,8.1-4,16-12.1,17.4l-106.3,19c-8.1,1.5-16-4-17.4-12.1l0,0c-1.5-8.1,4-16,12.1-17.4
		l106.3-19C131.7,57,139.5,62.4,141,70.6z"/>
</g>
<g>
	<path class="st0" d="M213.9,51.7v97.6c0,6.2-5,11.2-11.2,11.2h-81.2c-6.2,0-11.2-5-11.2-11.2v-48.8V51.7c0-6.2,5-11.2,11.2-11.2
		h81.2C208.9,40.5,213.9,45.5,213.9,51.7z"/>
</g>
<g>
	<path class="st0" d="M258.9,84.7v31c0,17.1-14,31.1-31.1,31.1h-31.5c-17.1,0-31.1-14-31.1-31.1v-31c0-17.1,14-31.1,31.1-31.1h31.5
		C244.9,53.6,258.9,67.6,258.9,84.7z"/>
</g>
<g>
	<path class="st1" d="M154.8,115.5L154.8,115.5c0,8.3-6.8,15-15,15h-47c-8.2,0-15-6.7-15-15v0c0-8.2,6.7-15,15-15h47
		C148.1,100.5,154.8,107.3,154.8,115.5z"/>
</g>
<g>
	<path class="st1" d="M159.3,145.5L159.3,145.5c0,8.3-6.8,15-15,15h-35.7c-8.2,0-15-6.8-15-15v0c0-8.3,6.7-15,15-15h35.7
		C152.6,130.5,159.3,137.3,159.3,145.5z"/>
</g>
<g>
	<circle class="st2" cx="179.5" cy="59.7" r="37.9"/>
</g>
<g>
	<path class="st2" d="M182.4,52L182.4,52c5.8,5.8,5.8,15.4,0,21.2l-53.3,53.3c-5.8,5.8-15.4,5.8-21.2,0l0,0
		c-5.8-5.8-5.8-15.4,0-21.2L161.2,52C167.1,46.2,176.6,46.2,182.4,52z"/>
</g>
</svg>
